<svg xmlns="http://www.w3.org/2000/svg" viewBox="0 0 100 100" width="100" height="100">
  <defs>
    <pattern id="carpetPattern" x="0" y="0" width="20" height="20" patternUnits="userSpaceOnUse">
      <rect width="20" height="20" fill="#8B4513"/>
      <circle cx="10" cy="10" r="3" fill="#D2691E"/>
      <rect x="7" y="7" width="6" height="6" fill="none" stroke="#FFD700" stroke-width="0.5"/>
    </pattern>
    <linearGradient id="carpetGradient" x1="0%" y1="0%" x2="100%" y2="100%">
      <stop offset="0%" style="stop-color:#A0522D;stop-opacity:1" />
      <stop offset="100%" style="stop-color:#8B4513;stop-opacity:1" />
    </linearGradient>
  </defs>
  
  <!-- Carpet base -->
  <rect x="10" y="15" width="80" height="60" fill="url(#carpetGradient)" stroke="#654321" stroke-width="2" rx="4"/>
  
  <!-- Carpet pattern -->
  <rect x="12" y="17" width="76" height="56" fill="url(#carpetPattern)" opacity="0.8" rx="2"/>
  
  <!-- Fringe top -->
  <g stroke="#8B4513" stroke-width="1" opacity="0.8">
    <line x1="15" y1="15" x2="15" y2="10"/>
    <line x1="20" y1="15" x2="20" y2="10"/>
    <line x1="25" y1="15" x2="25" y2="10"/>
    <line x1="30" y1="15" x2="30" y2="10"/>
    <line x1="35" y1="15" x2="35" y2="10"/>
    <line x1="40" y1="15" x2="40" y2="10"/>
    <line x1="45" y1="15" x2="45" y2="10"/>
    <line x1="50" y1="15" x2="50" y2="10"/>
    <line x1="55" y1="15" x2="55" y2="10"/>
    <line x1="60" y1="15" x2="60" y2="10"/>
    <line x1="65" y1="15" x2="65" y2="10"/>
    <line x1="70" y1="15" x2="70" y2="10"/>
    <line x1="75" y1="15" x2="75" y2="10"/>
    <line x1="80" y1="15" x2="80" y2="10"/>
    <line x1="85" y1="15" x2="85" y2="10"/>
  </g>
  
  <!-- Fringe bottom -->
  <g stroke="#8B4513" stroke-width="1" opacity="0.8">
    <line x1="15" y1="75" x2="15" y2="80"/>
    <line x1="20" y1="75" x2="20" y2="80"/>
    <line x1="25" y1="75" x2="25" y2="80"/>
    <line x1="30" y1="75" x2="30" y2="80"/>
    <line x1="35" y1="75" x2="35" y2="80"/>
    <line x1="40" y1="75" x2="40" y2="80"/>
    <line x1="45" y1="75" x2="45" y2="80"/>
    <line x1="50" y1="75" x2="50" y2="80"/>
    <line x1="55" y1="75" x2="55" y2="80"/>
    <line x1="60" y1="75" x2="60" y2="80"/>
    <line x1="65" y1="75" x2="65" y2="80"/>
    <line x1="70" y1="75" x2="70" y2="80"/>
    <line x1="75" y1="75" x2="75" y2="80"/>
    <line x1="80" y1="75" x2="80" y2="80"/>
    <line x1="85" y1="75" x2="85" y2="80"/>
  </g>
  
  <!-- Decorative center medallion -->
  <circle cx="50" cy="45" r="12" fill="#FFD700" opacity="0.3" stroke="#D2691E" stroke-width="2"/>
  <circle cx="50" cy="45" r="8" fill="none" stroke="#B8860B" stroke-width="1"/>
  <circle cx="50" cy="45" r="4" fill="#D2691E"/>
  
  <!-- Corner decorations -->
  <circle cx="22" cy="27" r="3" fill="#FFD700" opacity="0.6"/>
  <circle cx="78" cy="27" r="3" fill="#FFD700" opacity="0.6"/>
  <circle cx="22" cy="63" r="3" fill="#FFD700" opacity="0.6"/>
  <circle cx="78" cy="63" r="3" fill="#FFD700" opacity="0.6"/>
  
  <!-- Cleaning sparkles effect -->
  <g fill="#87CEEB" opacity="0.7">
    <circle cx="25" cy="35" r="1.5">
      <animate attributeName="opacity" values="0.7;0.2;0.7" dur="2s" repeatCount="indefinite"/>
    </circle>
    <circle cx="75" cy="40" r="1">
      <animate attributeName="opacity" values="0.2;0.7;0.2" dur="1.5s" repeatCount="indefinite"/>
    </circle>
    <circle cx="60" cy="25" r="1.2">
      <animate attributeName="opacity" values="0.7;0.2;0.7" dur="2.5s" repeatCount="indefinite"/>
    </circle>
    <circle cx="35" cy="65" r="1">
      <animate attributeName="opacity" values="0.2;0.7;0.2" dur="1.8s" repeatCount="indefinite"/>
    </circle>
  </g>
</svg>
